# xmcd
#
# Track frame offsets: 
#        150
#        3766
#        10982
#        14649
#        32127
#        37371
#        62924
#        66501
#        74365
#        85636
#        89208
#        99773
#        158022
#        194678
#        305957
#        313133
#        339976
#
# Disc length: 4681 seconds
#
# Revision: 0
# Processed by: cddbd v1.5.2PL0 Copyright (c) Steve Scherf et al.
# Submitted via: ExactAudioCopy v0.99pb5
#
DISCID=f3124711
DTITLE=Kiss  - Dynasty Sessions - Disc 1
DYEAR=1900
DGENRE=
TTITLE0=Sure Know Something - Take 1
TTITLE1=Sure Know Something - Take 2
TTITLE2=Sure Know Something - Take 3
TTITLE3=Sure Know Something - Take 4
TTITLE4=Sure Know Something - Take 5
TTITLE5=Sure Know Something - Take 6
TTITLE6=Sure Know Something - Take 7
TTITLE7=Sure Know Something - Take 8
TTITLE8=Sure Know Something - Take 9
TTITLE9=Sure Know Something - Take 10
TTITLE10=Sure Know Something - Take 11
TTITLE11=Sure Know Something - Take 12
TTITLE12=Sure Know Something - Take 13
TTITLE13=Sure Know Something - Take 14
TTITLE14=Sure Know Something - Take 15
TTITLE15=Sure Know Something - Take 16
TTITLE16=Sure Know Something - Take 17
EXTD=
EXTT0=
EXTT1=
EXTT2=
EXTT3=
EXTT4=
EXTT5=
EXTT6=
EXTT7=
EXTT8=
EXTT9=
EXTT10=
EXTT11=
EXTT12=
EXTT13=
EXTT14=
EXTT15=
EXTT16=
PLAYORDER=
